<svg height="512pt" viewBox="-93 0 512 512" width="512pt" xmlns="http://www.w3.org/2000/svg"><g fill="#8cf2ff"><path d="m132.09375 317.8125h61.8125v103.09375h-61.8125zm0 0"/><path d="m67.453125 198.007812c0 22.1875-13.605469 40.175782-30.386719 40.175782-16.785156 0-26.535156-20.65625-26.535156-42.84375 0-22.191406 9.75-37.507813 26.535156-37.507813 16.78125 0 30.386719 17.984375 30.386719 40.175781zm0 0"/><path d="m258.546875 198.007812c0 22.1875 13.605469 40.175782 30.386719 40.175782 16.785156 0 26.535156-20.65625 26.535156-42.84375 0-22.191406-9.75-37.507813-26.535156-37.507813-16.78125 0-30.386719 17.984375-30.386719 40.175781zm0 0"/></g><path d="m51.738281 251.621094v-82.632813c0-57.953125 46.980469-104.929687 104.933594-104.929687h12.65625c57.953125 0 104.929687 46.976562 104.929687 104.929687v82.632813c0 61.410156-49.777343 111.1875-111.1875 111.1875h-.144531c-61.40625 0-111.1875-49.777344-111.1875-111.1875zm0 0" fill="#bdf9ff"/><path d="m169.328125 64.058594h-12.65625c-3.074219 0-6.117187.140625-9.125.398437 53.679687 4.625 95.808594 49.652344 95.808594 104.53125v82.632813c0 56.1875-41.679688 102.632812-95.808594 110.125 5.027344.695312 10.164063 1.0625 15.382813 1.0625h.144531c61.40625 0 111.1875-49.777344 111.1875-111.1875v-82.632813c0-57.953125-46.980469-104.929687-104.933594-104.929687zm0 0" fill="#8cf2ff"/><path d="m287.050781 494.019531v13.980469c0 2.210938-1.792969 4-4 4h-240.101562c-2.207031 0-4-1.789062-4-4v-13.980469c0-52.257812 36.699219-94.628906 81.960937-94.628906h84.179688c45.261718 0 81.960937 42.371094 81.960937 94.628906zm0 0" fill="#4380a0"/><path d="m205.089844 399.390625h-26.394532c45.265626 0 81.960938 42.367187 81.960938 94.632813v17.976562h22.394531c2.207031 0 4-1.789062 4-4v-13.976562c0-52.265626-36.695312-94.632813-81.960937-94.632813zm0 0" fill="#3b7191"/><path d="m292.671875 147.296875h-259.34375v-84.351563c0-34.761718 28.183594-62.945312 62.949219-62.945312h133.445312c34.765625 0 62.949219 28.183594 62.949219 62.945312zm0 0" fill="#4380a0"/><path d="m229.722656 0h-30.90625c34.765625 0 62.949219 28.183594 62.949219 62.945312v84.347657h30.902344v-84.347657c.003906-34.761718-28.179688-62.945312-62.945313-62.945312zm0 0" fill="#3b7191"/><path d="m202.070312 228.6875c-1.335937-19.363281-16.945312-34.972656-36.308593-36.308594-23.214844-1.589844-41.925781 16.859375-41.925781 39.070313 0 4.140625 3.355468 7.5 7.5 7.5 4.140624 0 7.5-3.359375 7.5-7.5 0-13.992188 11.804687-25.082031 25.894531-24.105469 11.933593.824219 21.550781 10.441406 22.375 22.375.707031 10.261719-5.140625 19.878906-14.554688 23.9375-10.359375 4.460938-17.050781 14.472656-17.050781 25.503906v6.726563c0 4.144531 3.355469 7.5 7.5 7.5 4.140625 0 7.5-3.355469 7.5-7.5v-6.726563c0-5.035156 3.132812-9.640625 7.984375-11.730468 15.253906-6.570313 24.730469-22.140626 23.585937-38.742188zm0 0" fill="#4380a0"/><path d="m163.53125 297.753906c-4.140625 0-7.5 3.355469-7.5 7.5v6.960938c0 4.144531 3.359375 7.5 7.5 7.5 4.144531 0 7.5-3.355469 7.5-7.5v-6.960938c0-4.144531-3.355469-7.5-7.5-7.5zm0 0" fill="#4380a0"/><path d="m171.828125 469.570312v42.429688h-15v-42.429688c0-4.140624 3.363281-7.5 7.5-7.5 4.152344 0 7.5 3.359376 7.5 7.5zm0 0" fill="#bdf9ff"/><path d="m144.769531 480.199219v31.800781h-15v-28.691406l-11.890625-11.886719c-1.410156-1.410156-2.199218-3.3125-2.199218-5.300781v-31.339844c0-4.140625 3.359374-7.5 7.5-7.5 4.140624 0 7.5 3.359375 7.5 7.5v28.230469l11.890624 11.886719c1.410157 1.410156 2.199219 3.320312 2.199219 5.300781zm0 0" fill="#bdf9ff"/><path d="m210.320312 453.46875v20.410156c0 1.992188-.789062 3.902344-2.199218 5.300782l-10.160156 10.171874v22.648438h-15v-25.761719c0-1.988281.789062-3.898437 2.1875-5.296875l10.171874-10.171875v-17.300781c0-4.140625 3.351563-7.5 7.5-7.5 4.140626 0 7.5 3.359375 7.5 7.5zm0 0" fill="#bdf9ff"/><path d="m307.117188 166.179688h-288.234376c-10.429687 0-18.882812-8.457032-18.882812-18.882813 0-10.429687 8.453125-18.886719 18.882812-18.886719h288.234376c10.429687 0 18.882812 8.457032 18.882812 18.886719 0 10.425781-8.453125 18.882813-18.882812 18.882813zm0 0" fill="#3b7191"/><path d="m307.089844 128.410156h-30.949219c10.445313 0 18.910156 8.457032 18.910156 18.886719 0 10.425781-8.464843 18.882813-18.910156 18.882813h30.949219c10.441406 0 18.910156-8.457032 18.910156-18.882813 0-10.433594-8.46875-18.886719-18.910156-18.886719zm0 0" fill="#2b6182"/></svg>